<svg xmlns="http://www.w3.org/2000/svg" width="256" height="256" viewBox="0 0 100 100"><rect width="100" height="100" rx="20" fill="#98c8b2"></rect><path d="M82.04 54.10L16.61 54.10Q16.25 53.65 16.02 52.93Q15.80 52.21 15.80 51.31L15.80 51.31Q15.80 49.69 16.43 49.10Q17.06 48.52 17.87 48.52L17.87 48.52L22.28 48.52Q20.75 41.86 19.40 35.38Q18.05 28.90 17.24 23.95L17.24 23.95Q17.87 23.32 18.95 22.78Q20.03 22.24 21.29 22.24L21.29 22.24Q24.44 22.24 25.07 25.57L25.07 25.57L29.75 48.52L42.17 48.52Q42.98 45.91 43.97 42.89Q44.96 39.88 46.04 36.37L46.04 36.37Q46.76 36.01 47.79 35.74Q48.83 35.47 50.09 35.47L50.09 35.47Q53.87 35.47 54.68 37.81L54.68 37.81Q55.67 40.69 56.57 43.34Q57.47 46.00 58.37 48.52L58.37 48.52L70.79 48.52Q72.05 42.49 73.17 36.19Q74.30 29.89 75.29 22.87L75.29 22.87Q76.55 22.24 78.35 22.24L78.35 22.24Q80.06 22.24 81.05 23.00Q82.04 23.77 82.04 25.30L82.04 25.30Q82.04 26.56 81.77 28.90Q81.50 31.24 80.96 34.34Q80.42 37.45 79.70 41.05Q78.98 44.65 78.17 48.52L78.17 48.52L83.48 48.52Q83.75 49.15 83.97 49.87Q84.20 50.59 84.20 51.40L84.20 51.40Q84.20 52.66 83.61 53.38Q83.03 54.10 82.04 54.10L82.04 54.10ZM82.04 64.98L74.21 64.98Q73.31 68.31 72.45 71.24Q71.60 74.17 70.88 76.51L70.88 76.51Q70.07 76.95 68.81 77.36Q67.55 77.77 65.93 77.77L65.93 77.77Q63.95 77.77 62.60 77.14Q61.25 76.51 60.80 75.43L60.80 75.43Q59.99 73.54 59.00 70.88Q58.01 68.23 56.93 64.98L56.93 64.98L43.70 64.98Q42.44 68.59 41.41 71.56Q40.37 74.53 39.47 76.59L39.47 76.59Q38.75 77.05 37.49 77.41Q36.23 77.77 34.61 77.77L34.61 77.77Q32.54 77.77 31.28 77.09Q30.02 76.42 29.57 75.43L29.57 75.43Q28.85 73.90 28.08 71.20Q27.32 68.50 26.33 64.98L26.33 64.98L16.61 64.98Q16.25 64.54 16.02 63.82Q15.80 63.10 15.80 62.20L15.80 62.20Q15.80 60.58 16.43 59.99Q17.06 59.41 17.87 59.41L17.87 59.41L83.48 59.41Q83.75 60.04 83.97 60.76Q84.20 61.48 84.20 62.29L84.20 62.29Q84.20 63.55 83.61 64.27Q83.03 64.98 82.04 64.98L82.04 64.98ZM35.06 71.20L36.95 64.98L33.26 64.98L34.70 71.20L35.06 71.20ZM66.02 71.20L67.28 64.98L63.68 64.98L65.66 71.20L66.02 71.20ZM50.27 43.57L50.27 43.57Q49.82 44.83 49.46 46.04Q49.10 47.26 48.74 48.52L48.74 48.52L51.80 48.52Q51.35 47.26 50.99 46.04Q50.63 44.83 50.27 43.57Z" fill="#fff"></path></svg>